<svg xmlns="http://www.w3.org/2000/svg" width="1em" height="1em" style="flex:none;line-height:1" viewBox="0 0 24 24"><title>Meta</title><path fill="url(#a)" d="M6.9 4h-.03l-.03 2.62h.02c1.72 0 3.05 1.35 5.94 6.24l.18.3.01.02 1.62-2.44-.01-.02A49 49 0 0 0 13.5 9a28 28 0 0 0-1.17-1.62C10.4 4.93 8.8 4 6.9 4"/><path fill="url(#b)" d="M6.87 4c-1.92.01-3.62 1.26-4.85 3.17l-.01.02 2.25 1.23.02-.02c.71-1.08 1.6-1.77 2.56-1.78h.02L6.9 4z"/><path fill="url(#c)" d="M2.02 7.17 2 7.19C1.2 8.45.6 9.99.27 11.66v.03l2.53.6v-.03c.28-1.46.8-2.82 1.46-3.84l.01-.02z"/><path fill="url(#d)" d="m2.8 12.26-2.53-.6v.03A15 15 0 0 0 0 14.47v.02l2.6.24v-.03a13 13 0 0 1 .2-2.43z"/><path fill="url(#e)" d="M2.68 15.54a6 6 0 0 1-.08-.82v-.02L0 14.47v.02a9 9 0 0 0 .15 1.65l2.53-.58z"/><path fill="url(#f)" d="M3.27 16.89a2.6 2.6 0 0 1-.59-1.33v-.02l-2.54.59v.02q.3 1.52 1.11 2.48l.02.02 2.01-1.74z"/><path fill="#0082fb" d="M10.78 9.65C9.25 12 8.33 13.48 8.33 13.48c-2.04 3.2-2.74 3.92-3.88 3.92a1.6 1.6 0 0 1-1.18-.51l-2.02 1.74.02.02A3.9 3.9 0 0 0 4.36 20c1.96 0 3.37-.93 5.88-5.33l1.77-3.13a41 41 0 0 0-1.23-1.89"/><path fill="url(#g)" d="M13.5 5.95q-.6.65-1.16 1.42.56.72 1.17 1.63.71-1.12 1.37-1.8l.01-.03z"/><path fill="#0082fb" d="M20.92 5.71A5.2 5.2 0 0 0 17.22 4c-1.43 0-2.63.79-3.72 1.94l-.01.02 1.38 1.24.01-.02c.72-.74 1.41-1.12 2.18-1.12.83 0 1.6.4 2.27 1.08l.02.01 1.58-1.42z"/><path fill="url(#h)" d="M24 14.13c-.06-3.47-1.27-6.57-3.07-8.4l-.01-.02-1.59 1.43.02.01c1.35 1.4 2.27 3.98 2.36 6.97v.03H24z"/><path fill="url(#i)" d="M24 14.15v-.02h-2.3v.02l.01.42a4 4 0 0 1-.37 1.95v.03l1.7 1.78.01-.02c.62-.96.95-2.3.95-3.91z"/><path fill="url(#j)" d="M21.34 16.52v.02q-.33.6-.92.79l.77 2.46.44-.18A3.6 3.6 0 0 0 23 18.39l.04-.07.01-.02z"/><path fill="url(#k)" d="M19.92 17.4q-.39 0-.72-.15l-.8 2.53q.67.22 1.46.22a4 4 0 0 0 1.36-.22l-.78-2.46q-.26.08-.52.07"/><path fill="url(#l)" d="m18.32 16.53-.01-.01-1.84 1.91.02.02a5 5 0 0 0 1.94 1.34l.8-2.52q-.43-.18-.9-.74"/><path fill="url(#m)" d="M18.3 16.52a32 32 0 0 1-2.3-3.44l-1.39-2.34-.01-.02-1.62 2.44.01.02.99 1.67a22 22 0 0 0 2.5 3.58v.02l1.84-1.92z"/><defs><linearGradient id="a" x1="75.9%" x2="26.31%" y1="89.2%" y2="12.19%"><stop offset=".06%" stop-color="#0867df"/><stop offset="45.39%" stop-color="#0668e1"/><stop offset="85.91%" stop-color="#0064e0"/></linearGradient><linearGradient id="b" x1="21.67%" x2="97.07%" y1="75.87%" y2="23.98%"><stop offset="13.23%" stop-color="#0064df"/><stop offset="99.88%" stop-color="#0064e0"/></linearGradient><linearGradient id="c" x1="38.26%" x2="60.9%" y1="89.13%" y2="16.13%"><stop offset="1.47%" stop-color="#0072ec"/><stop offset="68.81%" stop-color="#0064df"/></linearGradient><linearGradient id="d" x1="47.03%" x2="52.15%" y1="90.19%" y2="15.74%"><stop offset="7.31%" stop-color="#007cf6"/><stop offset="99.43%" stop-color="#0072ec"/></linearGradient><linearGradient id="e" x1="52.16%" x2="47.59%" y1="58.3%" y2="37%"><stop offset="7.31%" stop-color="#007ff9"/><stop offset="100%" stop-color="#007cf6"/></linearGradient><linearGradient id="f" x1="37.69%" x2="61.96%" y1="12.5%" y2="63.62%"><stop offset="7.31%" stop-color="#007ff9"/><stop offset="100%" stop-color="#0082fb"/></linearGradient><linearGradient id="g" x1="34.81%" x2="62.31%" y1="68.86%" y2="23.17%"><stop offset="27.99%" stop-color="#007ff8"/><stop offset="91.41%" stop-color="#0082fb"/></linearGradient><linearGradient id="h" x1="43.76%" x2="57.6%" y1="6.24%" y2="98.51%"><stop offset="0%" stop-color="#0082fb"/><stop offset="99.95%" stop-color="#0081fa"/></linearGradient><linearGradient id="i" x1="60.05%" x2="39.88%" y1="4.66%" y2="69.08%"><stop offset="6.19%" stop-color="#0081fa"/><stop offset="100%" stop-color="#0080f9"/></linearGradient><linearGradient id="j" x1="30.28%" x2="61.08%" y1="59.32%" y2="33.24%"><stop offset="0%" stop-color="#027af3"/><stop offset="100%" stop-color="#0080f9"/></linearGradient><linearGradient id="k" x1="20.43%" x2="82.11%" y1="50%" y2="50%"><stop offset="0%" stop-color="#0377ef"/><stop offset="99.94%" stop-color="#0279f1"/></linearGradient><linearGradient id="l" x1="40.3%" x2="72.39%" y1="35.3%" y2="57.81%"><stop offset=".19%" stop-color="#0471e9"/><stop offset="100%" stop-color="#0377ef"/></linearGradient><linearGradient id="m" x1="32.25%" x2="68%" y1="19.72%" y2="84.91%"><stop offset="27.65%" stop-color="#0867df"/><stop offset="100%" stop-color="#0471e9"/></linearGradient></defs></svg>